<svg width="1em" height="1em" viewBox="0 0 24 24" fill="currentColor" xmlns="http://www.w3.org/2000/svg">
<g id="&#228;&#184;&#139;&#232;&#189;&#189;">
<path id="Vector" d="M5.25 20H18.75C18.9625 20 19.1406 20.0719 19.2843 20.2157C19.4281 20.3596 19.5 20.5378 19.5 20.7502C19.5 20.9629 19.4281 21.141 19.2843 21.2845C19.1406 21.4282 18.9625 21.5 18.75 21.5H5.25C5.0375 21.5 4.85942 21.4281 4.71575 21.2843C4.57192 21.1404 4.5 20.9622 4.5 20.7498C4.5 20.5371 4.57192 20.359 4.71575 20.2155C4.85942 20.0718 5.0375 20 5.25 20ZM11.9905 17.0385C11.8548 17.0385 11.723 17.0083 11.595 16.948C11.467 16.8878 11.3577 16.7975 11.2673 16.677L6.798 10.8558C6.57367 10.5544 6.54417 10.2355 6.7095 9.899C6.87483 9.5625 7.14542 9.39425 7.52125 9.39425H9.31725V3.404C9.31725 3.14783 9.40392 2.93317 9.57725 2.76C9.75042 2.58667 9.96508 2.5 10.2213 2.5H13.7693C14.0253 2.5 14.2399 2.58667 14.4133 2.76C14.5864 2.93317 14.673 3.14783 14.673 3.404V9.39425H16.4693C16.8449 9.39425 17.1154 9.5625 17.2807 9.899C17.4461 10.2355 17.4166 10.5544 17.1923 10.8558L12.7135 16.677C12.6232 16.7975 12.5139 16.8878 12.3857 16.948C12.2578 17.0083 12.126 17.0385 11.9905 17.0385Z"/>
</g>
</svg>
