<svg xmlns="http://www.w3.org/2000/svg" viewBox="0 0 85 80" fill="none">
  <path d="M84.364 23C84.364 29.218 81.896 34.86 77.886 39H78.002L64.364 52.639V45.806C62.2971 46.0757 60.2032 46.0656 58.139 45.776L50.739 27.952H38.898C38.542 26.3254 38.3629 24.6651 38.364 23C38.364 10.297 48.661 0 61.364 0C74.066 0 84.364 10.297 84.364 23ZM65.364 12H58.364L59.627 26H63.899L65.364 12ZM61.864 29L59.364 30.5V33.5L61.864 35L64.364 33.5V30.5L61.864 29ZM15.864 64V56H0.364014V80H62.364V56H46.864V64H15.864Z" fill="#6F6E78"/>
  <path d="M58.139 45.7752C48.599 44.4362 40.938 37.2462 38.898 27.9512H11.988L0.364014 55.9512H15.864V63.9992H46.864V55.9512H62.364L58.139 45.7752Z" fill="#5A5864"/>
  <path d="M38.8979 27.9512C40.9379 37.2472 48.6 44.4362 58.138 45.7752L50.7379 27.9512H38.8979Z" fill="#32313B"/>
  <path d="M58.364 12H65.364L63.899 26H59.627L58.364 12ZM59.364 30.5L61.864 29L64.364 30.5V33.5L61.864 35L59.364 33.5V30.5Z" fill="#5A5864"/>
</svg>