<svg t="1726291926318" class="icon" viewBox="0 0 1024 1024" version="1.1" xmlns="http://www.w3.org/2000/svg" p-id="3099" width="200" height="200"><path d="M906.5 207.4V1024H242.8c-68.6 0-124.2-56.6-124.2-126.4V0h573.8l214.1 207.4z" fill="#C3C4FF" p-id="3100"></path><path d="M692.5 0v229.1h214v-21.7z" fill="#6365BD" p-id="3101"></path><path d="M692.5 0v207.4h214zM42.3 491.8h939.3V898H42.3z" fill="#8183F1" p-id="3102"></path><path d="M718.7 696.2c0-13.3 2-25.7 6-37.1s9.8-21.4 17.2-29.9 16.7-15.2 27.6-20 23.2-7.2 36.9-7.2c13.8 0 26.2 2.4 37 7.2s20 11.5 27.5 20 13.2 18.5 17.2 29.9 6 23.8 6 37.1c0 13-2 25.1-6 36.4s-9.8 21-17.2 29.4-16.7 14.9-27.5 19.6-23.2 7.1-37 7.1c-13.7 0-26-2.4-36.9-7.1s-20-11.3-27.5-19.6-13.2-18.1-17.2-29.4-6.1-23.3-6.1-36.4z m39.3 0c0 7.5 0.9 14.8 2.6 21.9s4.5 13.5 8.4 19.1 8.8 10.2 15 13.6 13.7 5.1 22.5 5.1 16.3-1.7 22.5-5.1 11.2-8 15-13.6 6.6-12 8.4-19.1 2.6-14.4 2.6-21.9c0-7.8-0.9-15.4-2.6-22.8s-4.5-13.9-8.4-19.6-8.8-10.3-15-13.8-13.7-5.1-22.5-5.1-16.3 1.7-22.5 5.1-11.2 8-15 13.8-6.6 12.3-8.4 19.6-2.6 15-2.6 22.8z m-193.5-90H698v33h-94.2v38.2h86.5V708h-86.5v43.8H700v33H564.5V606.2z m-185.3 0h77c11.5 0 22.2 1.8 32.1 5.5s18.5 9.2 25.8 16.5c7.2 7.3 12.9 16.5 17 27.5s6.1 23.9 6.1 38.8c0 13-1.7 25-5 36s-8.4 20.5-15.1 28.5c-6.8 8-15.2 14.3-25.3 18.9s-22 6.9-35.6 6.9h-77V606.2z m39.2 145.6h35c5.7 0 11.2-0.9 16.5-2.8s10.1-4.9 14.2-9.1 7.5-9.8 10-16.6 3.8-15.2 3.8-25c0-9-0.9-17.1-2.6-24.4s-4.6-13.5-8.6-18.6-9.3-9.1-15.9-11.9-14.7-4.1-24.4-4.1h-28v112.5z m-113-145.6h39.2v178.5h-39.2V606.2z m-74.5 178.6h-44.2l-57.8-178.5h40.2l39.8 125.5h0.5l40.2-125.5h40.5l-59.2 178.5z" fill="#FFFFFF" p-id="3103"></path><path d="M500.8 344.1c0 18.7-15 33.7-33.7 33.7H281.7c-18.7 0-33.7-15.1-33.7-33.7V188.7c0-18.7 15-33.7 33.7-33.7h184.8c18.7 0 33.7 15.1 33.7 33.7v155.4h0.6zM627.2 345.3c0 14.5-11.4 23.5-20.5 16.3L527.2 299c-1.2-1.2-2.4-3-2.4-4.8v-65.6c0-1.8 0.6-3.6 2.4-4.8l79.5-62.6c9-7.2 20.5 1.8 20.5 16.3v167.8z" fill="#6365BD" p-id="3104"></path></svg>