<svg xmlns="http://www.w3.org/2000/svg" width="1em" height="1em" viewBox="0 0 24 24" fill="currentColor">
  <path d="M10.3865 12L14.4598 7.927C14.5981 7.7885 14.6689 7.61441 14.6723 7.40475C14.6754 7.19525 14.6046 7.018 14.4598 6.873C14.3148 6.72816 14.1391 6.65575 13.9328 6.65575C13.7264 6.65575 13.5508 6.72816 13.4058 6.873L8.9115 11.3672C8.818 11.4609 8.752 11.5597 8.7135 11.6635C8.675 11.7673 8.65575 11.8795 8.65575 12C8.65575 12.1205 8.675 12.2327 8.7135 12.3365C8.752 12.4403 8.818 12.5391 8.9115 12.6327L13.4058 17.127C13.5443 17.2653 13.7183 17.3362 13.928 17.3395C14.1375 17.3427 14.3148 17.2718 14.4598 17.127C14.6046 16.982 14.677 16.8063 14.677 16.6C14.677 16.3937 14.6046 16.218 14.4598 16.073L10.3865 12Z"/>
</svg>