<svg xmlns="http://www.w3.org/2000/svg" width="20" height="18" viewBox="0 0 20 18" fill="none">
  <path d="M8.73769 16.3411C8.73368 16.6758 9.0116 16.9167 9.31253 16.9167H10.6897C11.0008 16.9167 11.2645 16.6669 11.2645 16.3444V1.65564C11.2645 1.33312 11.0008 1.08333 10.6897 1.08333H9.31253C9.00134 1.08333 8.73769 1.33312 8.73769 1.65564V16.3411ZM8.73769 16.3411C8.73771 16.3392 8.73774 16.3373 8.73778 16.3354L9.15435 16.3444H8.73769V16.3411ZM15.5523 6.01339L15.5426 6.00692L15.5325 6.001C15.1593 5.78199 14.6649 6.0388 14.6649 6.49402V7.46895H13.5194C13.2082 7.46895 12.9446 7.71874 12.9446 8.04126V9.95874C12.9446 10.2813 13.2082 10.531 13.5194 10.531H14.6649V11.506C14.6649 11.9612 15.1593 12.218 15.5325 11.999L15.5426 11.9931L15.5523 11.9866L19.3141 9.48506C19.6733 9.26146 19.6733 8.73854 19.3141 8.51494L15.5523 6.01339ZM4.46782 6.001L4.45774 6.00692L4.448 6.01339L0.686229 8.51493C0.327029 8.73852 0.32703 9.26148 0.68623 9.48507L4.448 11.9866L4.45774 11.9931L4.46782 11.999C4.841 12.218 5.33545 11.9612 5.33545 11.506V10.531H6.4809C6.79209 10.531 7.05575 10.2813 7.05575 9.95874V8.04126C7.05575 7.71874 6.79209 7.46895 6.4809 7.46895H5.33545V6.49402C5.33545 6.0388 4.84099 5.78199 4.46782 6.001Z" fill="#F9F9F9" stroke="#201F26" stroke-width="0.833333"/>
</svg>