<svg xmlns="http://www.w3.org/2000/svg" width="1em" height="1em" viewBox="0 0 24 24" fill="currentColor">
  <path fill-rule="evenodd" clip-rule="evenodd" d="M16.3629 15.5522C18.7767 12.6062 18.6087 8.2521 15.8588 5.50215C12.9298 2.57322 8.18108 2.57322 5.25215 5.50215C2.32322 8.43108 2.32322 13.1798 5.25215 16.1088C8.0021 18.8587 12.3562 19.0267 15.3022 16.6129L18.6872 19.9978C18.9801 20.2907 19.4549 20.2907 19.7478 19.9978C20.0407 19.7049 20.0407 19.2301 19.7478 18.9372L16.3629 15.5522ZM14.7981 6.56281C17.1412 8.90596 17.1412 12.7049 14.7981 15.0481C12.4549 17.3912 8.65596 17.3912 6.31281 15.0481C3.96966 12.7049 3.96966 8.90596 6.31281 6.56281C8.65596 4.21966 12.4549 4.21966 14.7981 6.56281Z"/>
</svg>