<svg width="36" height="36" viewBox="0 0 36 36" fill="none" xmlns="http://www.w3.org/2000/svg">
<g id="Logo-&#230;&#150;&#135;&#229;&#173;&#151;+&#229;&#155;&#190;&#229;&#189;&#162;">
<g id="Union">
<path fill-rule="evenodd" clip-rule="evenodd" d="M10.5715 4.96017C10.1575 5.18253 10.0344 5.72303 10.3115 6.10275L10.3149 6.10618L26.9371 28.9852C27.2141 29.3683 27.7615 29.4162 28.1036 29.0912C30.8608 26.4605 32.6773 22.937 32.9578 19.1364C33.6078 10.3549 26.6497 3 18.0017 3C15.5147 3 13.0516 3.61918 10.8759 4.79597L10.5715 4.96017ZM30.8335 17.9972C30.8335 21.0897 29.7319 24.0556 27.7204 26.3784V26.3818L20.4852 16.4236L26.3897 8.29555C29.2154 10.7381 30.8335 14.2616 30.8335 17.9972ZM24.6416 7.01956L19.1477 14.5797L13.0345 6.16433C14.5979 5.51094 16.3117 5.16543 18.0051 5.16543C20.3518 5.16543 22.6404 5.80514 24.6416 7.01956Z" fill="black"/>
<path fill-rule="evenodd" clip-rule="evenodd" d="M3.0421 16.8615C2.39213 25.6429 9.35366 32.9944 17.9983 32.9944L17.9949 32.9978C20.4818 32.9978 22.9449 32.3752 25.1206 31.1985L25.425 31.0343C25.839 30.8119 25.9621 30.2714 25.685 29.8917L9.06288 7.0127C8.78578 6.62956 8.23845 6.58166 7.89636 6.90665C5.13911 9.53732 3.32261 13.0608 3.0421 16.8615ZM17.9983 30.829C15.6515 30.829 13.3629 30.1893 11.3617 28.9749L16.8557 21.4147L22.9688 29.8301C21.4021 30.4835 19.6916 30.829 17.9983 30.829ZM5.16648 17.9972C5.16648 14.9047 6.26801 11.9388 8.2795 9.616V9.61258L15.5147 19.5708L9.61022 27.6989C6.78456 25.2564 5.16648 21.7328 5.16648 17.9972Z" fill="black"/>
</g>
</g>
</svg>
