<svg xmlns="http://www.w3.org/2000/svg" width="1em" height="1em" viewBox="0 0 24 24" fill="currentColor">
  <path d="M12.0287 20.5C9.65958 20.5 7.65066 19.6757 6.00199 18.027C4.35333 16.3782 3.52899 14.3692 3.52899 12C3.52899 10.027 4.13949 8.27317 5.36049 6.7385C6.58166 5.20384 8.20824 4.21475 10.2402 3.77125C10.4506 3.71859 10.6358 3.72367 10.796 3.7865C10.9563 3.84934 11.0865 3.94292 11.1865 4.06725C11.2865 4.19175 11.3455 4.34275 11.3635 4.52025C11.3813 4.69775 11.3397 4.875 11.2385 5.052C11.032 5.42767 10.8787 5.81867 10.7787 6.225C10.6787 6.6315 10.6287 7.0565 10.6287 7.5C10.6287 9.141 11.2018 10.5346 12.348 11.6808C13.4942 12.8269 14.8877 13.4 16.5287 13.4C17.0199 13.4 17.4892 13.3378 17.9365 13.2135C18.384 13.0892 18.7757 12.9449 19.1115 12.7808C19.2757 12.7091 19.4359 12.6838 19.5922 12.7048C19.7487 12.7259 19.8827 12.7782 19.9942 12.8615C20.1161 12.9448 20.2067 13.0587 20.2662 13.203C20.3259 13.3472 20.3327 13.5167 20.2865 13.7115C19.9313 15.6782 18.9746 17.3013 17.4162 18.5808C15.8579 19.8603 14.0621 20.5 12.0287 20.5Z"/>
</svg>