<svg xmlns="http://www.w3.org/2000/svg" width="1em" height="1em" viewBox="0 0 24 25" fill="currentColor">
  <path d="M15.3885 12.8865C15.5257 12.793 15.5943 12.6642 15.5943 12.5C15.5943 12.3358 15.5257 12.207 15.3885 12.1135L10.3905 8.9135C10.2367 8.80967 10.0818 8.80133 9.926 8.8885C9.77017 8.97567 9.69225 9.10967 9.69225 9.2905V15.7095C9.69225 15.8903 9.77017 16.0243 9.926 16.1115C10.0818 16.1987 10.2367 16.1903 10.3905 16.0865L15.3885 12.8865ZM5.30775 21C4.80258 21 4.375 20.825 4.025 20.475C3.675 20.125 3.5 19.6974 3.5 19.1923V5.80775C3.5 5.30258 3.675 4.875 4.025 4.525C4.375 4.175 4.80258 4 5.30775 4H18.6923C19.1974 4 19.625 4.175 19.975 4.525C20.325 4.875 20.5 5.30258 20.5 5.80775V19.1923C20.5 19.6974 20.325 20.125 19.975 20.475C19.625 20.825 19.1974 21 18.6923 21H5.30775ZM5.30775 19.5H18.6923C18.7692 19.5 18.8398 19.4679 18.9038 19.4038C18.9679 19.3398 19 19.2692 19 19.1923V5.80775C19 5.73075 18.9679 5.66025 18.9038 5.59625C18.8398 5.53208 18.7692 5.5 18.6923 5.5H5.30775C5.23075 5.5 5.16025 5.53208 5.09625 5.59625C5.03208 5.66025 5 5.73075 5 5.80775V19.1923C5 19.2692 5.03208 19.3398 5.09625 19.4038C5.16025 19.4679 5.23075 19.5 5.30775 19.5Z" />
</svg>