<svg xmlns="http://www.w3.org/2000/svg" width="1em" height="1em" viewBox="0 0 24 25" fill="currentColor">
  <path d="M14.5 11.775L15.9259 12.6448C16.0577 12.7282 16.1908 12.7235 16.3251 12.6308C16.4595 12.5381 16.5093 12.4125 16.4743 12.2538L16.0958 10.6225L17.3688 9.52257C17.4924 9.41239 17.5287 9.28265 17.4776 9.13337C17.4266 8.98409 17.3177 8.90276 17.1509 8.88937L15.4871 8.74879L14.8306 7.2179C14.7688 7.07263 14.6587 7 14.5 7C14.3413 7 14.2312 7.07263 14.1694 7.2179L13.5129 8.74879L11.8491 8.88937C11.6823 8.90276 11.5734 8.98409 11.5224 9.13337C11.4713 9.28265 11.5076 9.41239 11.6312 9.52257L12.9042 10.6225L12.5257 12.2538C12.4907 12.4125 12.5405 12.5381 12.6749 12.6308C12.8092 12.7235 12.9423 12.7282 13.0741 12.6448L14.5 11.775Z" />
  <path fill-rule="evenodd" clip-rule="evenodd" d="M7.79426 16.7057C8.14426 17.0557 8.57185 17.2308 9.07701 17.2308H19.6923C20.1974 17.2308 20.625 17.0557 20.975 16.7057C21.325 16.3557 21.5 15.9282 21.5 15.423V4.80775C21.5 4.30258 21.325 3.875 20.975 3.525C20.625 3.175 20.1974 3 19.6923 3H9.07701C8.57185 3 8.14426 3.175 7.79426 3.525C7.44426 3.875 7.26926 4.30258 7.26926 4.80775V15.423C7.26926 15.9282 7.44426 16.3557 7.79426 16.7057ZM19.6923 15.7308H9.07701C8.98718 15.7308 8.91343 15.7019 8.85576 15.6442C8.7981 15.5866 8.76926 15.5128 8.76926 15.423V4.80775C8.76926 4.71792 8.7981 4.64417 8.85576 4.5865C8.91343 4.52883 8.98718 4.5 9.07701 4.5H19.6923C19.7821 4.5 19.8558 4.52883 19.9135 4.5865C19.9712 4.64417 20 4.71792 20 4.80775V15.423C20 15.5128 19.9712 15.5866 19.9135 15.6442C19.8558 15.7019 19.7821 15.7308 19.6923 15.7308Z" />
  <path d="M4.59726 21.4845C4.99393 21.7858 5.44168 21.9063 5.94051 21.846L17.777 20.377C17.9898 20.35 18.1588 20.2596 18.2838 20.1057C18.4088 19.9519 18.4578 19.7686 18.4308 19.5557C18.4039 19.3429 18.3093 19.174 18.147 19.049C17.9848 18.924 17.7974 18.875 17.5848 18.902L5.77301 20.3615C5.68335 20.3743 5.60643 20.3551 5.54226 20.3038C5.47826 20.2526 5.43985 20.1821 5.42701 20.0923L4.15376 9.75775C4.14093 9.66792 4.16018 9.58933 4.21151 9.522C4.26285 9.45483 4.33335 9.418 4.42301 9.4115L4.63076 9.402C4.81676 9.37117 4.97476 9.28492 5.10476 9.14325C5.23493 9.00158 5.30001 8.83783 5.30001 8.652C5.30001 8.4225 5.21635 8.235 5.04901 8.0895C4.88168 7.944 4.69168 7.88658 4.47901 7.91725L4.23651 7.927C3.73785 7.991 3.33118 8.22208 3.01651 8.62025C2.70168 9.01825 2.57443 9.46667 2.63476 9.9655L3.91151 20.2845C3.97185 20.7833 4.20043 21.1833 4.59726 21.4845Z" />
</svg>