<svg xmlns="http://www.w3.org/2000/svg" width="1em" height="1em" viewBox="0 0 20 20" fill="currentColor">
  <path d="M9.37496 5.82999V15.3108C9.37496 15.4882 9.43482 15.6367 9.55455 15.7562C9.67413 15.876 9.8226 15.9358 9.99996 15.9358C10.1773 15.9358 10.3258 15.876 10.4454 15.7562C10.5651 15.6367 10.625 15.4882 10.625 15.3108V5.82999L14.9327 10.1377C15.0566 10.2616 15.2016 10.3228 15.3677 10.3212C15.5338 10.3196 15.6815 10.2542 15.8108 10.125C15.9315 9.99568 15.994 9.84929 15.9983 9.68582C16.0026 9.52235 15.9401 9.37596 15.8108 9.24665L10.5273 3.96311C10.4492 3.88506 10.3669 3.83006 10.2804 3.79811C10.1939 3.76603 10.1004 3.74999 9.99996 3.74999C9.89955 3.74999 9.80608 3.76603 9.71955 3.79811C9.63302 3.83006 9.55073 3.88506 9.47267 3.96311L4.18913 9.24665C4.07371 9.36207 4.01469 9.50499 4.01205 9.6754C4.00941 9.84582 4.06844 9.99568 4.18913 10.125C4.31844 10.2542 4.46691 10.3187 4.63455 10.3187C4.80233 10.3187 4.95087 10.2542 5.08017 10.125L9.37496 5.82999Z"/>
</svg>