<svg xmlns="http://www.w3.org/2000/svg" width="1em" height="1em" viewBox="0 0 20 20" fill="currentColor">
  <path d="M9.37496 13.8558V4.375C9.37496 4.19764 9.43482 4.04917 9.55455 3.92958C9.67413 3.80986 9.8226 3.75 9.99996 3.75C10.1773 3.75 10.3258 3.80986 10.4454 3.92958C10.5651 4.04917 10.625 4.19764 10.625 4.375V13.8558L14.9327 9.54813C15.0566 9.42424 15.2016 9.36306 15.3677 9.36458C15.5338 9.36625 15.6815 9.43167 15.8108 9.56083C15.9315 9.69014 15.994 9.83653 15.9983 10C16.0026 10.1635 15.9401 10.3099 15.8108 10.4392L10.5273 15.7227C10.4492 15.8008 10.3669 15.8558 10.2804 15.8877C10.1939 15.9198 10.1004 15.9358 9.99996 15.9358C9.89955 15.9358 9.80608 15.9198 9.71955 15.8877C9.63302 15.8558 9.55073 15.8008 9.47267 15.7227L4.18913 10.4392C4.07371 10.3238 4.01469 10.1808 4.01205 10.0104C4.00941 9.84 4.06844 9.69014 4.18913 9.56083C4.31844 9.43167 4.46691 9.36708 4.63455 9.36708C4.80233 9.36708 4.95087 9.43167 5.08017 9.56083L9.37496 13.8558Z"/>
</svg>