<svg xmlns="http://www.w3.org/2000/svg" width="1em" height="1em" viewBox="0 0 20 20" fill="currentColor">
  <path d="M7.24338 8.74999H4.42296C4.00199 8.74999 3.64567 8.60416 3.354 8.31249C3.06234 8.02082 2.9165 7.6645 2.9165 7.24353V4.42311C2.9165 4.00214 3.06234 3.64582 3.354 3.35416C3.64567 3.06249 4.00199 2.91666 4.42296 2.91666H7.24338C7.66435 2.91666 8.02067 3.06249 8.31234 3.35416C8.604 3.64582 8.74984 4.00214 8.74984 4.42311V7.24353C8.74984 7.6645 8.604 8.02082 8.31234 8.31249C8.02067 8.60416 7.66435 8.74999 7.24338 8.74999ZM4.42296 7.49999H7.24338C7.31824 7.49999 7.3797 7.47596 7.42775 7.42791C7.47581 7.37985 7.49984 7.31839 7.49984 7.24353V4.42311C7.49984 4.34825 7.47581 4.2868 7.42775 4.23874C7.3797 4.19068 7.31824 4.16666 7.24338 4.16666H4.42296C4.3481 4.16666 4.28664 4.19068 4.23859 4.23874C4.19053 4.2868 4.1665 4.34825 4.1665 4.42311V7.24353C4.1665 7.31839 4.19053 7.37985 4.23859 7.42791C4.28664 7.47596 4.3481 7.49999 4.42296 7.49999ZM7.24338 17.0833H4.42296C4.00199 17.0833 3.64567 16.9375 3.354 16.6458C3.06234 16.3542 2.9165 15.9978 2.9165 15.5769V12.7564C2.9165 12.3355 3.06234 11.9792 3.354 11.6875C3.64567 11.3958 4.00199 11.25 4.42296 11.25H7.24338C7.66435 11.25 8.02067 11.3958 8.31234 11.6875C8.604 11.9792 8.74984 12.3355 8.74984 12.7564V15.5769C8.74984 15.9978 8.604 16.3542 8.31234 16.6458C8.02067 16.9375 7.66435 17.0833 7.24338 17.0833ZM4.42296 15.8333H7.24338C7.31824 15.8333 7.3797 15.8093 7.42775 15.7612C7.47581 15.7132 7.49984 15.6517 7.49984 15.5769V12.7564C7.49984 12.6816 7.47581 12.6201 7.42775 12.5721C7.3797 12.524 7.31824 12.5 7.24338 12.5H4.42296C4.3481 12.5 4.28664 12.524 4.23859 12.5721C4.19053 12.6201 4.1665 12.6816 4.1665 12.7564V15.5769C4.1665 15.6517 4.19053 15.7132 4.23859 15.7612C4.28664 15.8093 4.3481 15.8333 4.42296 15.8333ZM15.5767 8.74999H12.7563C12.3353 8.74999 11.979 8.60416 11.6873 8.31249C11.3957 8.02082 11.2498 7.6645 11.2498 7.24353V4.42311C11.2498 4.00214 11.3957 3.64582 11.6873 3.35416C11.979 3.06249 12.3353 2.91666 12.7563 2.91666H15.5767C15.9977 2.91666 16.354 3.06249 16.6457 3.35416C16.9373 3.64582 17.0832 4.00214 17.0832 4.42311V7.24353C17.0832 7.6645 16.9373 8.02082 16.6457 8.31249C16.354 8.60416 15.9977 8.74999 15.5767 8.74999ZM12.7563 7.49999H15.5767C15.6516 7.49999 15.713 7.47596 15.7611 7.42791C15.8091 7.37985 15.8332 7.31839 15.8332 7.24353V4.42311C15.8332 4.34825 15.8091 4.2868 15.7611 4.23874C15.713 4.19068 15.6516 4.16666 15.5767 4.16666H12.7563C12.6814 4.16666 12.62 4.19068 12.5719 4.23874C12.5239 4.2868 12.4998 4.34825 12.4998 4.42311V7.24353C12.4998 7.31839 12.5239 7.37985 12.5719 7.42791C12.62 7.47596 12.6814 7.49999 12.7563 7.49999ZM15.5767 17.0833H12.7563C12.3353 17.0833 11.979 16.9375 11.6873 16.6458C11.3957 16.3542 11.2498 15.9978 11.2498 15.5769V12.7564C11.2498 12.3355 11.3957 11.9792 11.6873 11.6875C11.979 11.3958 12.3353 11.25 12.7563 11.25H15.5767C15.9977 11.25 16.354 11.3958 16.6457 11.6875C16.9373 11.9792 17.0832 12.3355 17.0832 12.7564V15.5769C17.0832 15.9978 16.9373 16.3542 16.6457 16.6458C16.354 16.9375 15.9977 17.0833 15.5767 17.0833ZM12.7563 15.8333H15.5767C15.6516 15.8333 15.713 15.8093 15.7611 15.7612C15.8091 15.7132 15.8332 15.6517 15.8332 15.5769V12.7564C15.8332 12.6816 15.8091 12.6201 15.7611 12.5721C15.713 12.524 15.6516 12.5 15.5767 12.5H12.7563C12.6814 12.5 12.62 12.524 12.5719 12.5721C12.5239 12.6201 12.4998 12.6816 12.4998 12.7564V15.5769C12.4998 15.6517 12.5239 15.7132 12.5719 15.7612C12.62 15.8093 12.6814 15.8333 12.7563 15.8333Z"/>
</svg>