<svg xmlns="http://www.w3.org/2000/svg" width="1em" height="1em" viewBox="0 0 24 24" fill="currentColor">
  <path
    d="M12 13.0635L8.75377 16.3095C8.60893 16.4545 8.43335 16.5254 8.22702 16.522C8.02052 16.5189 7.84485 16.4449 7.70002 16.3C7.55518 16.1552 7.48277 15.978 7.48277 15.7683C7.48277 15.5586 7.55518 15.3814 7.70002 15.2365L10.9365 12L7.69052 8.7788C7.54552 8.63396 7.47468 8.45671 7.47802 8.24705C7.48118 8.03755 7.55518 7.86038 7.70002 7.71555C7.84485 7.57055 8.0221 7.49805 8.23177 7.49805C8.44143 7.49805 8.61868 7.57055 8.76352 7.71555L12 10.9615L15.2213 7.71555C15.3661 7.57055 15.5417 7.49805 15.748 7.49805C15.9545 7.49805 16.1302 7.57055 16.275 7.71555C16.4302 7.87055 16.5078 8.0503 16.5078 8.2548C16.5078 8.4593 16.4302 8.63396 16.275 8.7788L13.0385 12L16.2845 15.2463C16.4295 15.3911 16.502 15.5667 16.502 15.773C16.502 15.9795 16.4295 16.1552 16.2845 16.3C16.1295 16.4552 15.9498 16.5328 15.7453 16.5328C15.5408 16.5328 15.3661 16.4552 15.2213 16.3L12 13.0635Z" />
</svg>