<svg xmlns="http://www.w3.org/2000/svg" width="1em" height="1em" viewBox="0 0 20 20" fill="currentColor">
  <path
    d="M6.08979 17.0834C5.67424 17.0834 5.31924 16.9362 5.02479 16.6419C4.73049 16.3475 4.58333 15.9925 4.58333 15.5769V5.00002H4.375C4.19764 5.00002 4.04917 4.94016 3.92958 4.82044C3.80986 4.70086 3.75 4.55238 3.75 4.37502C3.75 4.19766 3.80986 4.04919 3.92958 3.92961C4.04917 3.80988 4.19764 3.75002 4.375 3.75002H7.5C7.5 3.546 7.57188 3.37211 7.71563 3.22836C7.85924 3.08475 8.03306 3.01294 8.23708 3.01294H11.7629C11.9669 3.01294 12.1408 3.08475 12.2844 3.22836C12.4281 3.37211 12.5 3.546 12.5 3.75002H15.625C15.8024 3.75002 15.9508 3.80988 16.0704 3.92961C16.1901 4.04919 16.25 4.19766 16.25 4.37502C16.25 4.55238 16.1901 4.70086 16.0704 4.82044C15.9508 4.94016 15.8024 5.00002 15.625 5.00002H15.4167V15.5769C15.4167 15.9925 15.2695 16.3475 14.9752 16.6419C14.6808 16.9362 14.3258 17.0834 13.9102 17.0834H6.08979ZM14.1667 5.00002H5.83333V15.5769C5.83333 15.6518 5.85736 15.7132 5.90542 15.7613C5.95347 15.8093 6.01493 15.8334 6.08979 15.8334H13.9102C13.9851 15.8334 14.0465 15.8093 14.0946 15.7613C14.1426 15.7132 14.1667 15.6518 14.1667 15.5769V5.00002ZM10 11.2948L11.7275 13.0225C11.8429 13.1378 11.988 13.1968 12.1627 13.1996C12.3373 13.2022 12.485 13.1432 12.6058 13.0225C12.7265 12.9017 12.7869 12.7553 12.7869 12.5834C12.7869 12.4114 12.7265 12.265 12.6058 12.1442L10.8781 10.4167L12.6058 8.68919C12.7211 8.57377 12.7801 8.4287 12.7829 8.25398C12.7856 8.0794 12.7265 7.93169 12.6058 7.81086C12.485 7.69016 12.3386 7.62981 12.1667 7.62981C11.9947 7.62981 11.8483 7.69016 11.7275 7.81086L10 9.53856L8.2725 7.81086C8.15708 7.69558 8.01201 7.63655 7.83729 7.63377C7.66271 7.63113 7.515 7.69016 7.39417 7.81086C7.27347 7.93169 7.21313 8.07808 7.21313 8.25002C7.21313 8.42197 7.27347 8.56836 7.39417 8.68919L9.12188 10.4167L7.39417 12.1442C7.27889 12.2596 7.21986 12.4047 7.21708 12.5794C7.21444 12.754 7.27347 12.9017 7.39417 13.0225C7.515 13.1432 7.66139 13.2036 7.83333 13.2036C8.00528 13.2036 8.15167 13.1432 8.2725 13.0225L10 11.2948Z" />
</svg>