<svg xmlns="http://www.w3.org/2000/svg" width="1em" height="1em" viewBox="0 0 20 20" fill="currentColor">
  <path d="M7.17936 14.9679C7.00227 14.9679 6.85387 14.908 6.73415 14.7881C6.61429 14.6683 6.55435 14.5198 6.55435 14.3427C6.55435 14.1655 6.61429 14.0171 6.73415 13.8975C6.85387 13.7778 7.00227 13.7179 7.17936 13.7179H16.1616C16.3387 13.7179 16.4871 13.7778 16.6069 13.8977C16.7267 14.0176 16.7866 14.166 16.7866 14.3431C16.7866 14.5203 16.7267 14.6687 16.6069 14.7883C16.4871 14.908 16.3387 14.9679 16.1616 14.9679H7.17936ZM7.17936 10.2244C7.00227 10.2244 6.85387 10.1644 6.73415 10.0446C6.61429 9.92471 6.55435 9.77624 6.55435 9.59916C6.55435 9.42194 6.61429 9.27346 6.73415 9.15374C6.85387 9.03416 7.00227 8.97436 7.17936 8.97436H16.1616C16.3387 8.97436 16.4872 9.0343 16.6071 9.15416C16.7268 9.27402 16.7866 9.42249 16.7866 9.59957C16.7866 9.77679 16.7268 9.9252 16.6071 10.0448C16.4872 10.1645 16.3387 10.2244 16.1616 10.2244H7.17936ZM7.17936 5.48082C7.00227 5.48082 6.85387 5.42089 6.73415 5.30103C6.61429 5.18117 6.55435 5.03263 6.55435 4.85541C6.55435 4.67832 6.61429 4.52992 6.73415 4.4102C6.85387 4.29061 7.00227 4.23082 7.17936 4.23082H16.1616C16.3387 4.23082 16.4872 4.29075 16.6071 4.41061C16.7268 4.53048 16.7866 4.67895 16.7866 4.85603C16.7866 5.03325 16.7268 5.18166 16.6071 5.30124C16.4872 5.42096 16.3387 5.48082 16.1616 5.48082H7.17936ZM4.03227 5.54478C3.83755 5.54478 3.67373 5.47895 3.54081 5.34728C3.40776 5.21561 3.34123 5.05242 3.34123 4.8577C3.34123 4.66298 3.40706 4.49916 3.53873 4.36624C3.67054 4.23318 3.83373 4.16666 4.02831 4.16666C4.22304 4.16666 4.38692 4.23249 4.51998 4.36416C4.6529 4.49596 4.71935 4.65916 4.71935 4.85374C4.71935 5.04846 4.65352 5.21235 4.52185 5.34541C4.39019 5.47832 4.22699 5.54478 4.03227 5.54478ZM4.03227 10.2885C3.83755 10.2885 3.67241 10.2207 3.53685 10.085C3.40116 9.9493 3.33331 9.78409 3.33331 9.58936C3.33331 9.39464 3.40116 9.23145 3.53685 9.09978C3.67241 8.96811 3.83755 8.90228 4.03227 8.90228C4.22699 8.90228 4.39019 8.96811 4.52185 9.09978C4.65352 9.23145 4.71935 9.39464 4.71935 9.58936C4.71935 9.78409 4.65352 9.9493 4.52185 10.085C4.39019 10.2207 4.22699 10.2885 4.03227 10.2885ZM4.03227 15.04C3.83755 15.04 3.67241 14.9721 3.53685 14.8364C3.40116 14.7008 3.33331 14.5356 3.33331 14.341C3.33331 14.1463 3.40116 13.9831 3.53685 13.8514C3.67241 13.7196 3.83755 13.6537 4.03227 13.6537C4.22699 13.6537 4.39019 13.7196 4.52185 13.8514C4.65352 13.9831 4.71935 14.1463 4.71935 14.341C4.71935 14.5356 4.65352 14.7008 4.52185 14.8364C4.39019 14.9721 4.22699 15.04 4.03227 15.04Z"/>
</svg>