<svg xmlns="http://www.w3.org/2000/svg" width="1em" height="1em" viewBox="0 0 24 24" fill="currentColor">
  <path d="M17.673 15.6443C17.673 17.2683 17.1079 18.6502 15.9777 19.79C14.8477 20.93 13.4721 21.5 11.851 21.5C10.2298 21.5 8.85256 20.93 7.71923 19.79C6.58589 18.6502 6.01923 17.2683 6.01923 15.6443V6.65375C6.01923 5.49992 6.41989 4.51917 7.22123 3.7115C8.02239 2.90383 8.99989 2.5 10.1537 2.5C11.3076 2.5 12.2851 2.90383 13.0865 3.7115C13.8878 4.51917 14.2885 5.49992 14.2885 6.65375V15.1635C14.2885 15.8403 14.0527 16.4182 13.5812 16.897C13.1096 17.3758 12.5349 17.6152 11.8572 17.6152C11.1794 17.6152 10.6011 17.3775 10.1222 16.902C9.64339 16.4265 9.40398 15.847 9.40398 15.1635V7.13475C9.40398 6.92225 9.47581 6.74408 9.61948 6.60025C9.76331 6.45658 9.94156 6.38475 10.1542 6.38475C10.3667 6.38475 10.5448 6.45658 10.6885 6.60025C10.832 6.74408 10.9037 6.92225 10.9037 7.13475V15.1635C10.9037 15.4315 10.9938 15.6572 11.174 15.8405C11.3541 16.0238 11.5782 16.1155 11.8462 16.1155C12.1141 16.1155 12.3381 16.0238 12.5182 15.8405C12.6984 15.6572 12.7885 15.4315 12.7885 15.1635V6.64425C12.7781 5.90575 12.5216 5.28042 12.019 4.76825C11.5163 4.25608 10.8946 4 10.1537 4C9.41606 4 8.79256 4.25767 8.28323 4.773C7.77389 5.2885 7.51923 5.91542 7.51923 6.65375V15.6443C7.50889 16.8533 7.92681 17.8814 8.77298 18.7288C9.61914 19.5763 10.6463 20 11.8545 20C13.0455 20 14.0579 19.5763 14.8917 18.7288C15.7254 17.8814 16.1525 16.8533 16.173 15.6443V7.13475C16.173 6.92225 16.2449 6.74408 16.3887 6.60025C16.5326 6.45658 16.7108 6.38475 16.9235 6.38475C17.136 6.38475 17.3141 6.45658 17.4577 6.60025C17.6012 6.74408 17.673 6.92225 17.673 7.13475V15.6443Z"/>
</svg>