<svg xmlns="http://www.w3.org/2000/svg" width="1em" height="1em" viewBox="0 0 24 24" fill="currentColor">
  <path d="M11.664 13.2773L15.737 9.20407C15.8755 9.06573 16.0496 8.9949 16.2593 8.99157C16.4688 8.9884 16.6461 9.05923 16.7911 9.20407C16.9359 9.34907 17.0083 9.52473 17.0083 9.73107C17.0083 9.9374 16.9359 10.1131 16.7911 10.2581L12.2968 14.7523C12.2031 14.8458 12.1044 14.9118 12.0005 14.9503C11.8967 14.9888 11.7845 15.0081 11.664 15.0081C11.5435 15.0081 11.4314 14.9888 11.3275 14.9503C11.2237 14.9118 11.125 14.8458 11.0313 14.7523L6.53705 10.2581C6.39872 10.1196 6.32788 9.94548 6.32455 9.73582C6.32138 9.52632 6.39222 9.34907 6.53705 9.20407C6.68205 9.05923 6.85772 8.98682 7.06405 8.98682C7.27038 8.98682 7.44605 9.05923 7.59105 9.20407L11.664 13.2773Z" />
</svg>