<svg xmlns="http://www.w3.org/2000/svg" width="1em" height="1em" viewBox="0 0 24 24" fill="currentColor">
  <path d="M18.75 8.25V6.25H16.75C16.3358 6.25 16 5.91421 16 5.5C16 5.08579 16.3358 4.75 16.75 4.75H18.75V2.75C18.75 2.33579 19.0858 2 19.5 2C19.9142 2 20.25 2.33579 20.25 2.75V4.75H22.25C22.6642 4.75 23 5.08579 23 5.5C23 5.91421 22.6642 6.25 22.25 6.25H20.25V8.25C20.25 8.66421 19.9142 9 19.5 9C19.0858 9 18.75 8.66421 18.75 8.25Z"/>
  <path d="M14.5714 3.81395C14.5714 3.53613 14.3861 3.29055 14.1149 3.23023C12.2609 2.81792 10.3143 2.9594 8.52398 3.6547C7.46423 4.06896 6.49264 4.67963 5.66053 5.45447C4.85392 6.21288 4.20521 7.12264 3.75156 8.13163C3.26744 9.16255 3.01113 10.2853 3 11.4237C3.01232 13.4954 3.81911 15.4838 5.25468 16.9805L5.66053 20.4376C5.67887 20.592 5.75317 20.7345 5.86945 20.8381C5.98573 20.9417 6.13596 20.9993 6.29184 21C6.40244 21.0002 6.51121 20.9718 6.6075 20.9175L9.22293 19.4177C11.2946 20.0474 13.5184 19.9628 15.536 19.1777C16.5958 18.7635 17.5674 18.1528 18.3995 17.378C19.1957 16.6242 19.8366 15.7224 20.2859 14.7233C20.7565 13.688 21 12.5643 21 11.4275C21 11.0639 20.9751 10.7017 20.9258 10.3432C20.8868 10.0591 20.6373 9.85714 20.3505 9.85714C19.9617 9.85714 19.6759 10.2208 19.722 10.6068C19.7533 10.8686 19.7691 11.1326 19.7691 11.3975C19.7691 12.3535 19.5634 13.2984 19.1661 14.1684V14.1984C18.7688 15.0496 18.2069 15.8141 17.5127 16.4481C16.7893 17.1178 15.9451 17.6446 15.025 18.0004C13.1949 18.7098 11.1732 18.7549 9.31312 18.1279C9.22792 18.0993 9.13758 18.0892 9.04815 18.0982C8.95871 18.1073 8.87225 18.1353 8.79454 18.1804L6.75781 19.3427L6.43464 16.6206C6.41716 16.4815 6.35369 16.3521 6.25426 16.2531C4.96391 14.9747 4.23419 13.238 4.22505 11.4237C4.22326 10.4665 4.42834 9.52008 4.82629 8.64906C5.22363 7.79786 5.78552 7.03333 6.47973 6.39935C7.2152 5.71936 8.07514 5.18722 9.01249 4.83205C10.5317 4.24261 12.1805 4.11283 13.7568 4.44271C14.1651 4.52815 14.5714 4.2311 14.5714 3.81395Z"/>
  <path d="M7 11.5C7 10.9477 7.44772 10.5 8 10.5H8.00897C8.56125 10.5 9.00897 10.9477 9.00897 11.5C9.00897 12.0523 8.56125 12.5 8.00897 12.5H8C7.44772 12.5 7 12.0523 7 11.5Z"/>
  <path d="M10.9955 11.5C10.9955 10.9477 11.4432 10.5 11.9955 10.5H12.0045C12.5568 10.5 13.0045 10.9477 13.0045 11.5C13.0045 12.0523 12.5568 12.5 12.0045 12.5H11.9955C11.4432 12.5 10.9955 12.0523 10.9955 11.5Z"/>
  <path d="M14.991 11.5C14.991 10.9477 15.4387 10.5 15.991 10.5H16C16.5523 10.5 17 10.9477 17 11.5C17 12.0523 16.5523 12.5 16 12.5H15.991C15.4387 12.5 14.991 12.0523 14.991 11.5Z"/>
</svg>