<svg xmlns="http://www.w3.org/2000/svg" width="1em" height="1em" viewBox="0 0 24 24" fill="currentColor">
  <path d="M11.6687 10.7173L7.59571 14.7906C7.45721 14.9289 7.28313 14.9997 7.07346 15.0031C6.86396 15.0062 6.68671 14.9354 6.54171 14.7906C6.39688 14.6456 6.32446 14.4699 6.32446 14.2636C6.32446 14.0572 6.39688 13.8816 6.54171 13.7366L11.036 9.24231C11.1296 9.14881 11.2284 9.08281 11.3322 9.04431C11.436 9.00581 11.5482 8.98656 11.6687 8.98656C11.7892 8.98656 11.9014 9.00581 12.0052 9.04431C12.109 9.08281 12.2078 9.14881 12.3015 9.24231L16.7957 13.7366C16.934 13.8751 17.0049 14.0491 17.0082 14.2588C17.0114 14.4683 16.9405 14.6456 16.7957 14.7906C16.6507 14.9354 16.475 15.0078 16.2687 15.0078C16.0624 15.0078 15.8867 14.9354 15.7417 14.7906L11.6687 10.7173Z" />
</svg>