<svg xmlns="http://www.w3.org/2000/svg" width="48" height="48" viewBox="0 0 48 48" fill="none">
  <path d="M9.59995 0H32L44.7999 12.8V41.6C44.7999 45.12 41.9199 48 38.3999 48H9.59995C6.07995 48 3.19995 45.12 3.19995 41.6V6.4C3.19995 2.88 6.07995 0 9.59995 0ZM24 40C31.0399 40 36.7999 34.24 36.7999 27.2C36.7999 20.16 31.0399 14.4 24 14.4C16.96 14.4 11.2 20.16 11.2 27.2C11.2 34.24 16.96 40 24 40ZM24 36.8C18.5599 36.8 14.4 32.64 14.4 27.2C14.4 21.76 18.5599 17.6 24 17.6C29.4399 17.6 33.5999 21.76 33.5999 27.2C33.5999 32.64 29.4399 36.8 24 36.8ZM28.7999 28.16L29.1199 27.84C29.44 27.2 29.44 26.56 28.7999 26.24L22.7199 22.08C22.7199 22.08 22.4 21.76 22.08 21.76C21.44 21.76 20.7999 22.4 20.7999 23.04V31.04C20.7999 31.36 20.7999 31.68 21.1199 31.68C21.4399 32.32 22.4 32.32 23.0399 32L28.7999 28.16Z" fill="#BFBAFF"/>
  <path opacity="0.619" d="M32 0L44.8 12.8H35.2C33.28 12.8 32 11.52 32 9.6V0Z" fill="#F9F9F9"/>
</svg>