<svg xmlns="http://www.w3.org/2000/svg" width="24" height="25" viewBox="0 0 24 25" fill="none">
  <g clip-path="url(#clip0_763_9958)">
    <path d="M8.36068 1.34266C5.9627 2.17453 3.89469 3.75347 2.46041 5.84753C1.02612 7.9416 0.30116 10.4404 0.392005 12.977C0.482851 15.5135 1.38472 17.9541 2.96513 19.9402C4.54555 21.9263 6.72121 23.3532 9.17255 24.0114C11.1599 24.5242 13.2421 24.5467 15.2401 24.077C17.05 23.6705 18.7234 22.8008 20.0963 21.5533C21.5252 20.2152 22.5624 18.5129 23.0963 16.6295C23.6765 14.5814 23.7797 12.4275 23.3982 10.3333H12.2382V14.9627H18.7013C18.5721 15.701 18.2953 16.4057 17.8875 17.0346C17.4796 17.6635 16.949 18.2036 16.3276 18.6227C15.5384 19.1449 14.6487 19.4962 13.7157 19.6539C12.7799 19.8279 11.8202 19.8279 10.8844 19.6539C9.93596 19.458 9.03875 19.0666 8.25005 18.5045C6.98283 17.6075 6.03132 16.3331 5.5313 14.8633C5.02297 13.3659 5.02297 11.7426 5.5313 10.2452C5.88722 9.19556 6.47561 8.23991 7.25255 7.44953C8.14166 6.52843 9.2673 5.87002 10.506 5.54655C11.7446 5.22307 13.0485 5.24703 14.2744 5.61578C15.2322 5.90964 16.108 6.4233 16.8319 7.11578C17.5607 6.39078 18.2882 5.66391 19.0144 4.93516C19.3894 4.54328 19.7982 4.17016 20.1676 3.76891C19.0623 2.7405 17.765 1.94023 16.35 1.41391C13.7732 0.478261 10.9538 0.453117 8.36068 1.34266Z" fill="white"/>
    <path d="M8.36058 1.34259C10.9535 0.452447 13.7729 0.476929 16.35 1.41196C17.7652 1.94186 19.0619 2.74599 20.1656 3.77822C19.7906 4.17947 19.395 4.55447 19.0125 4.94447C18.285 5.67072 17.5581 6.39447 16.8318 7.11572C16.1079 6.42324 15.2321 5.90957 14.2743 5.61572C13.0488 5.24567 11.745 5.22033 10.506 5.54248C9.26699 5.86463 8.14067 6.52183 7.25058 7.44197C6.47364 8.23235 5.88525 9.188 5.52933 10.2376L1.64246 7.22822C3.03372 4.46927 5.44261 2.35888 8.36058 1.34259Z" fill="#E33629"/>
    <path d="M0.611279 10.2093C0.820041 9.17385 1.16689 8.17114 1.64253 7.22803L5.5294 10.2449C5.02107 11.7423 5.02107 13.3656 5.5294 14.863C4.2344 15.863 2.93878 16.868 1.64253 17.878C0.452186 15.5086 0.0891526 12.809 0.611279 10.2093Z" fill="#F8BD00"/>
    <path d="M12.2381 10.3315H23.3981C23.7797 12.4258 23.6764 14.5796 23.0963 16.6278C22.5623 18.5112 21.5252 20.2134 20.0963 21.5515C18.8419 20.5728 17.5819 19.6015 16.3275 18.6228C16.9494 18.2033 17.4802 17.6626 17.8881 17.033C18.296 16.4035 18.5726 15.6981 18.7013 14.959H12.2381C12.2363 13.4178 12.2381 11.8747 12.2381 10.3315Z" fill="#587DBD"/>
    <path d="M1.64062 17.8783C2.93687 16.8783 4.2325 15.8733 5.5275 14.8633C6.02851 16.3337 6.98138 17.6081 8.25 18.5045C9.04116 19.064 9.9403 19.4522 10.89 19.6445C11.8257 19.8186 12.7855 19.8186 13.7213 19.6445C14.6543 19.4868 15.544 19.1355 16.3331 18.6133C17.5875 19.592 18.8475 20.5633 20.1019 21.542C18.7292 22.7903 17.0558 23.6606 15.2456 24.0677C13.2476 24.5374 11.1655 24.5148 9.17813 24.002C7.60632 23.5824 6.13814 22.8425 4.86563 21.8289C3.51886 20.7594 2.41882 19.4119 1.64062 17.8783Z" fill="#319F43"/>
  </g>
  <defs>
    <clipPath id="clip0_763_9958">
      <rect width="24" height="24" fill="white" transform="translate(0 0.553223)"/>
    </clipPath>
  </defs>
</svg>