<svg xmlns="http://www.w3.org/2000/svg" viewBox="0 0 248 58" fill="none">
  <path fill-rule="evenodd" clip-rule="evenodd"
    d="M17.4007 7.92964C16.739 8.28513 16.5421 9.14923 16.9851 9.75629L16.9905 9.76176L43.5644 46.3385C44.0074 46.951 44.8825 47.0276 45.4294 46.508C49.8374 42.3024 52.7415 36.6693 53.1899 30.5932C54.229 16.5543 43.1051 4.7959 29.2794 4.7959C25.3034 4.7959 21.3657 5.78579 17.8875 7.66713L17.4007 7.92964ZM49.7937 28.772C49.7937 33.716 48.0326 38.4577 44.8169 42.1711V42.1766L33.2499 26.2563L42.6894 13.2619C47.2068 17.1668 49.7937 22.7999 49.7937 28.772ZM39.8947 11.222L31.1115 23.3085L21.3384 9.85473C23.8377 8.81015 26.5777 8.25778 29.2849 8.25778C33.0366 8.25778 36.6954 9.28049 39.8947 11.222Z"
    fill="#F9F9F9" />
  <path fill-rule="evenodd" clip-rule="evenodd"
    d="M5.36345 26.9563C4.32434 40.9952 15.4538 52.7482 29.274 52.7482L29.2685 52.7536C33.2445 52.7536 37.1821 51.7583 40.6604 49.8769L41.1472 49.6144C41.8089 49.2589 42.0058 48.3948 41.5628 47.7878L14.9889 11.211C14.5459 10.5985 13.6709 10.5219 13.124 11.0415C8.71595 15.2472 5.81191 20.8802 5.36345 26.9563ZM29.274 49.2863C25.5222 49.2863 21.8634 48.2636 18.6641 46.3221L27.4473 34.2356L37.2204 47.6893C34.7156 48.7339 31.9811 49.2863 29.274 49.2863ZM8.7597 28.772C8.7597 23.828 10.5207 19.0864 13.7365 15.3729V15.3675L25.3035 31.2878L15.8639 44.2821C11.3465 40.3773 8.7597 34.7442 8.7597 28.772Z"
    fill="#F9F9F9" />
  <path
    d="M77.9315 36.6607C79.4769 37.304 81.1482 37.6466 82.8894 37.6956L82.8824 37.6816H82.8964C84.5047 37.6816 86.12 37.3669 87.7004 36.7376C89.2878 36.1012 90.7283 35.1502 91.98 33.8985C93.1687 32.7377 94.1058 31.3532 94.7701 29.7938C95.4344 28.2344 95.77 26.5631 95.77 24.8149C95.77 23.1926 95.4554 21.5633 94.826 19.9829C94.7351 19.7452 94.6302 19.5074 94.5184 19.2767C94.1827 18.5844 93.4974 18.1508 92.7212 18.1508C92.1898 18.1508 91.6863 18.3606 91.2807 18.7662C90.6793 19.3676 90.5325 20.2976 90.9171 21.0808L91.0569 21.3885C91.5115 22.4654 91.7422 23.6192 91.7422 24.8219C91.7422 26.0247 91.5115 27.1785 91.0639 28.2484C90.6024 29.3253 89.973 30.2833 89.1829 31.0944C88.3927 31.9056 87.4487 32.5489 86.3858 33.0174C85.3299 33.479 84.1621 33.7097 82.9104 33.7097C81.6587 33.7097 80.4839 33.479 79.414 33.0174C78.3371 32.5489 77.3931 31.9056 76.6029 31.0944C75.8127 30.2833 75.1834 29.3253 74.7428 28.2484C74.2953 27.1715 74.0715 26.0177 74.0715 24.8149C74.0715 23.6122 74.3023 22.4584 74.7428 21.3815C75.1904 20.3116 75.8127 19.3606 76.6029 18.5564C77.3931 17.7593 78.3371 17.1159 79.414 16.6544C80.4909 16.1929 81.6657 15.9551 82.9104 15.9551C84.1551 15.9551 85.3229 16.1929 86.3858 16.6544C87.0361 16.9341 87.6445 17.2907 88.2039 17.7103C88.5535 17.976 88.9731 18.1159 89.4066 18.1159C89.9311 18.1159 90.4276 17.9061 90.8052 17.5355C91.2178 17.1229 91.4275 16.5495 91.3856 15.9621C91.3436 15.3887 91.0569 14.8712 90.6024 14.5286C89.7633 13.9062 88.8472 13.3818 87.8752 12.9762C86.3228 12.3189 84.5816 11.9902 82.9104 11.9902C81.2391 11.9902 79.5958 12.3049 78.0364 12.9342C76.477 13.5636 75.0505 14.4936 73.7918 15.7104C72.603 16.9201 71.673 18.3187 71.0297 19.8571C70.3724 21.4095 70.0437 23.1437 70.0437 24.8219C70.0437 26.5002 70.3654 28.1365 71.0087 29.6819C71.645 31.2273 72.5751 32.6468 73.7918 33.9055C74.9806 35.0943 76.3721 36.0243 77.9315 36.6607Z"
    fill="#F9F9F9" />
  <path
    d="M150.405 35.6747C150.405 36.7935 151.314 37.6956 152.426 37.6956C153.538 37.6956 154.44 36.7865 154.44 35.6747V14.0111C154.44 12.8923 153.545 11.9902 152.426 11.9902C151.307 11.9902 150.405 12.8993 150.405 14.0111V35.6747Z"
    fill="#F9F9F9" />
  <path
    d="M183.391 37.6955C182.281 37.6952 181.22 37.5693 180.236 37.3109C179.222 37.0452 178.327 36.5907 177.557 35.9404C176.795 35.297 176.18 34.4509 175.718 33.416C175.264 32.388 175.033 31.0944 175.033 29.57V17.3606C175.033 16.7942 175.229 16.3117 175.62 15.9201C176.012 15.5285 176.487 15.3327 177.033 15.3327C177.578 15.3327 178.089 15.5355 178.466 15.9271C178.837 16.3187 179.033 16.8012 179.033 17.3606V20.9479H183.389C183.921 20.9479 184.396 21.1297 184.795 21.4793C185.214 21.8569 185.424 22.3325 185.424 22.9129C185.424 23.4933 185.214 23.9408 184.809 24.3184C184.403 24.689 183.928 24.8778 183.396 24.8778H179.04V29.0315C179.04 30.0595 179.159 30.8916 179.389 31.5069C179.613 32.0873 179.914 32.5489 180.284 32.8566C180.655 33.1712 181.089 33.381 181.599 33.4859C182.159 33.5978 182.767 33.6607 183.389 33.6607C183.928 33.6607 184.403 33.8565 184.809 34.2411C185.221 34.6397 185.424 35.1292 185.424 35.6956C185.424 36.262 185.221 36.7235 184.809 37.1151C184.411 37.4993 183.929 37.6951 183.391 37.6955Z"
    fill="#F9F9F9" />
  <path
    d="M146.076 37.6956C145.531 37.6956 145.055 37.4998 144.649 37.1082C144.244 36.7236 144.034 36.2411 144.034 35.6887V29.1295C144.034 28.5211 143.929 27.9547 143.719 27.4442C143.51 26.9268 143.216 26.4652 142.838 26.0806C142.461 25.696 142.006 25.3814 141.475 25.1506C140.95 24.9198 140.356 24.808 139.713 24.808C139.069 24.808 138.475 24.9268 137.95 25.1506C137.419 25.3814 136.964 25.696 136.594 26.0946C136.216 26.4932 135.909 26.9757 135.692 27.5421C135.468 28.1015 135.356 28.7309 135.356 29.4022V35.6887C135.356 36.2271 135.167 36.7026 134.79 37.0942C134.405 37.4928 133.923 37.6886 133.349 37.6886C132.776 37.6886 132.328 37.4928 131.937 37.1012C131.545 36.7096 131.349 36.2341 131.349 35.6887V28.7938C131.349 27.689 131.573 26.6471 132.021 25.6821C132.461 24.731 133.062 23.8919 133.825 23.1926C134.58 22.5003 135.468 21.9479 136.475 21.5423C137.489 21.1438 138.58 20.934 139.713 20.934C140.936 20.934 142.076 21.1368 143.097 21.5423C144.111 21.9479 145.006 22.5003 145.747 23.1926C146.496 23.8919 147.076 24.738 147.468 25.696C147.859 26.654 148.062 27.689 148.062 28.7868V35.6817C148.062 36.2271 147.873 36.6956 147.496 37.0872C147.118 37.4858 146.635 37.6816 146.062 37.6816L146.076 37.6956Z"
    fill="#F9F9F9" />
  <path
    d="M97.6026 46.0869C97.9942 46.4785 98.4837 46.6743 99.0501 46.6743L99.0571 46.6673C99.6096 46.6673 100.078 46.4715 100.47 46.0799C100.861 45.6883 101.057 45.2058 101.057 44.6394V29.2344C101.057 28.4372 101.169 27.7589 101.4 27.2205C101.623 26.689 101.924 26.2625 102.302 25.9338C102.693 25.5981 103.127 25.3674 103.637 25.2205C104.176 25.0667 104.777 24.9898 105.379 24.9898C105.98 24.9898 106.539 25.1017 107.071 25.3324C107.595 25.5632 108.064 25.8848 108.455 26.2694C108.847 26.654 109.162 27.1226 109.392 27.654C109.616 28.1785 109.735 28.7519 109.735 29.3462C109.735 29.9406 109.616 30.507 109.392 31.0175C109.155 31.549 108.84 32.0105 108.455 32.3951C108.064 32.7867 107.595 33.1014 107.071 33.3321C106.539 33.5629 105.98 33.6748 105.379 33.6748C104.84 33.6748 104.365 33.8706 103.966 34.2622C103.574 34.6537 103.379 35.1572 103.379 35.7027C103.379 36.2481 103.574 36.7236 103.966 37.1152C104.358 37.5068 104.833 37.7026 105.379 37.7026C106.525 37.7026 107.616 37.4928 108.623 37.0732C109.637 36.6607 110.539 36.0453 111.294 35.2691C112.106 34.4929 112.728 33.5769 113.148 32.5559C113.567 31.535 113.777 30.4861 113.777 29.3462C113.777 28.2064 113.567 27.1156 113.148 26.1016C112.721 25.0807 112.099 24.1786 111.308 23.4374C110.546 22.6192 109.644 21.9969 108.623 21.5773C107.609 21.1647 106.511 20.9549 105.379 20.9549C104.246 20.9549 103.169 21.1228 102.183 21.4514C101.183 21.7871 100.288 22.2836 99.5187 22.9269C98.7494 23.5772 98.1341 24.4024 97.6866 25.3744C97.239 26.3534 97.0152 27.4932 97.0152 28.7728V44.6464C97.0152 45.2128 97.211 45.6953 97.6026 46.0869Z"
    fill="#F9F9F9" />
  <path
    d="M122.93 37.6956C122.546 37.6956 122.175 37.6746 121.819 37.6257C121.469 37.5767 121.098 37.5068 120.721 37.4159C119.637 37.1292 118.658 36.6467 117.791 35.9754C116.917 35.3041 116.203 34.4859 115.658 33.5349C115.105 32.5349 114.756 31.479 114.616 30.4022C114.469 29.3253 114.546 28.2344 114.833 27.1575C115.112 26.0876 115.595 25.1086 116.245 24.2345C116.903 23.3674 117.728 22.6332 118.7 22.0668C119.679 21.5144 120.728 21.1647 121.805 21.0249C122.168 20.9759 122.525 20.9549 122.888 20.9549C123.609 20.9549 124.336 21.0528 125.049 21.2417C126.14 21.5284 127.133 22.0109 128.007 22.6822C128.881 23.3465 129.594 24.1856 130.147 25.1576C130.538 25.8219 130.643 26.4303 130.455 26.9547C130.28 27.4442 129.902 27.8498 129.343 28.1575L124.511 30.9756C124.126 31.1434 123.797 31.2133 123.476 31.2133C122.742 31.2133 122.133 30.8707 121.728 30.2343C121.469 29.7169 121.413 29.2134 121.546 28.6959C121.686 28.1715 121.993 27.7519 122.462 27.4582L125.392 25.773C124.979 25.4862 124.518 25.2765 124.014 25.1366C123.616 25.0247 123.224 24.9758 122.853 24.9758C122.119 24.9758 121.434 25.1716 120.756 25.5911C120.217 25.8848 119.784 26.2485 119.455 26.689C119.112 27.1435 118.861 27.654 118.7 28.2134C118.539 28.7659 118.511 29.3253 118.595 29.8707C118.686 30.4371 118.875 30.9895 119.161 31.521C119.434 32.0105 119.798 32.4301 120.245 32.7657C120.693 33.1014 121.21 33.3531 121.77 33.5209C122.154 33.6188 122.553 33.6748 122.937 33.6748C123.679 33.6748 124.406 33.479 125.105 33.0944C125.385 32.9056 125.727 32.8007 126.098 32.8007C126.259 32.8007 126.427 32.8216 126.595 32.8636C127.133 32.9965 127.567 33.3391 127.839 33.8426C128.098 34.3111 128.161 34.8356 128.014 35.36C127.867 35.8705 127.567 36.2831 127.126 36.5768C125.762 37.332 124.364 37.7096 122.937 37.7096L122.93 37.6956Z"
    fill="#F9F9F9" />
  <path
    d="M171.725 37.6956C171.18 37.6956 170.704 37.4998 170.299 37.1152C169.893 36.7236 169.691 36.2481 169.691 35.6957V29.1365C169.691 28.5351 169.586 27.9687 169.376 27.4512C169.166 26.9338 168.872 26.4792 168.495 26.0876C168.117 25.703 167.663 25.3884 167.131 25.1576C166.607 24.9268 166.012 24.815 165.369 24.815C164.726 24.815 164.138 24.9268 163.607 25.1576C163.075 25.3884 162.621 25.703 162.25 26.1016C161.873 26.4932 161.572 26.9827 161.348 27.5491C161.124 28.1085 161.013 28.7309 161.013 29.4092V35.6957C161.013 36.2411 160.824 36.7096 160.446 37.1012C160.062 37.4998 159.579 37.6956 159.013 37.6956C158.446 37.6956 157.992 37.4998 157.6 37.1082C157.208 36.7236 157.013 36.2481 157.013 35.6957V28.8008C157.013 27.696 157.236 26.6541 157.684 25.6891C158.124 24.738 158.726 23.8989 159.481 23.1996C160.236 22.5074 161.124 21.9549 162.131 21.5493C163.145 21.1508 164.229 20.941 165.369 20.941C166.593 20.941 167.733 21.1438 168.76 21.5493C169.781 21.9549 170.669 22.5074 171.411 23.1996C172.159 23.8989 172.732 24.738 173.131 25.703C173.523 26.661 173.725 27.696 173.725 28.7938V35.6887C173.725 36.2271 173.537 36.7026 173.159 37.0942C172.774 37.4928 172.292 37.6886 171.725 37.6886V37.6956Z"
    fill="#F9F9F9" />
  <path
    d="M194.061 37.6956C193.676 37.6956 193.306 37.6746 192.949 37.6257C192.599 37.5767 192.229 37.5068 191.851 37.4159C190.767 37.1292 189.781 36.6467 188.914 35.9754C188.04 35.3041 187.327 34.4859 186.781 33.5349C186.229 32.528 185.879 31.479 185.74 30.4022C185.593 29.3183 185.67 28.2274 185.956 27.1575C186.243 26.0876 186.719 25.1017 187.369 24.2345C188.026 23.3605 188.851 22.6332 189.823 22.0668C190.802 21.5144 191.844 21.1647 192.928 21.0249C193.292 20.9759 193.648 20.9549 194.012 20.9549C194.732 20.9549 195.459 21.0528 196.173 21.2417C197.264 21.5284 198.257 22.0109 199.131 22.6822C200.005 23.3465 200.718 24.1856 201.27 25.1576C201.662 25.8219 201.767 26.4303 201.578 26.9547C201.403 27.4442 201.026 27.8498 200.466 28.1575L195.634 30.9756C195.25 31.1434 194.914 31.2133 194.599 31.2133C193.865 31.2133 193.257 30.8707 192.851 30.2343C192.585 29.7099 192.536 29.2134 192.669 28.6959C192.802 28.1715 193.11 27.7589 193.585 27.4582L196.515 25.773C196.103 25.4862 195.641 25.2765 195.138 25.1366C194.739 25.0247 194.348 24.9758 193.977 24.9758C193.243 24.9758 192.557 25.1716 191.879 25.5911C191.334 25.8848 190.914 26.2415 190.579 26.689C190.236 27.1365 189.984 27.654 189.823 28.2134C189.662 28.7659 189.627 29.3183 189.718 29.8777C189.809 30.4441 189.998 30.9965 190.285 31.528C190.565 32.0245 190.921 32.4301 191.369 32.7727C191.823 33.1154 192.327 33.3601 192.9 33.5279C193.285 33.6258 193.683 33.6818 194.068 33.6818C194.809 33.6818 195.536 33.486 196.236 33.1014C196.515 32.9126 196.858 32.8077 197.229 32.8077C197.389 32.8077 197.557 32.8286 197.725 32.8706C198.264 33.0035 198.697 33.3461 198.97 33.8496C199.229 34.3181 199.291 34.8426 199.145 35.367C198.998 35.8775 198.697 36.2831 198.264 36.5768C196.9 37.339 195.501 37.7096 194.068 37.7096L194.061 37.6956Z"
    fill="#F9F9F9" />
  <path
    d="M204.759 37.6956C204.186 37.6956 203.703 37.4928 203.326 37.1012C202.955 36.7166 202.759 36.2411 202.759 35.6957V29.1365C202.759 27.8918 202.941 26.7519 203.291 25.738C203.654 24.6961 204.249 23.794 205.067 23.0668C205.878 22.3465 206.927 21.7941 208.2 21.4374C209.361 21.1158 210.78 20.948 212.423 20.948H212.766C213.332 20.948 213.815 21.1507 214.193 21.5493C214.57 21.9409 214.759 22.4234 214.759 22.9829C214.759 23.5423 214.57 24.0248 214.186 24.4094C213.808 24.787 213.325 24.9828 212.759 24.9828C211.612 24.9828 210.633 25.0737 209.85 25.2555C209.102 25.4303 208.486 25.696 208.039 26.0457C207.598 26.3883 207.291 26.8149 207.095 27.3463C206.892 27.9057 206.787 28.5771 206.787 29.3393V35.6957C206.787 36.2411 206.591 36.7166 206.2 37.1082C205.808 37.4998 205.326 37.6956 204.759 37.6956Z"
    fill="#F9F9F9" />
  <path
    d="M233.59 17.081C233.472 16.5705 233.199 16.151 232.772 15.8293C232.388 15.5566 231.975 15.4237 231.549 15.4377C231.444 15.4377 231.339 15.4517 231.227 15.4727C230.702 15.5775 230.276 15.8643 229.961 16.3258L223.929 25.1521L221.025 20.1159C220.563 19.3117 219.423 19.1089 218.472 19.6543C217.521 20.1998 217.123 21.2906 217.577 22.0878L221.442 28.7903L208.612 47.5624C208.291 47.996 208.172 48.5204 208.284 49.0728C208.389 49.6253 208.675 50.0588 209.172 50.4015C209.549 50.6182 209.927 50.7231 210.298 50.7161C211.004 50.6952 211.57 50.3805 211.941 49.8141L223.676 32.6633L226.626 37.7796C227.087 38.5837 228.227 38.7865 229.178 38.2411C230.129 37.6956 230.528 36.6048 230.073 35.8076L226.163 29.0273L233.304 18.5914C233.625 18.1229 233.723 17.6124 233.597 17.081H233.59Z"
    fill="#F9F9F9" />
</svg>