<svg t="1725789318208" class="icon" viewBox="0 0 1024 1024" version="1.1" xmlns="http://www.w3.org/2000/svg" p-id="1461" width="1em" height="1em" fill="currentColor"><path d="M213.333334 682.666666 341.333334 682.666666 341.333334 810.666664 426.666666 810.666664 426.666666 597.333334 213.333334 597.333334 213.333334 682.666666 213.333334 682.666666ZM341.333334 341.333334 213.333334 341.333334 213.333334 426.666666 426.666666 426.666666 426.666666 213.333334 341.333334 213.333334 341.333334 341.333334 341.333334 341.333334ZM597.333334 810.666664 682.666666 810.666664 682.666666 682.666666 810.666664 682.666666 810.666664 597.333334 597.333334 597.333334 597.333334 810.666664 597.333334 810.666664ZM682.666666 341.333334 682.666666 213.333334 597.333334 213.333334 597.333334 426.666666 810.666664 426.666666 810.666664 341.333334 682.666666 341.333334 682.666666 341.333334Z"  p-id="1462"></path></svg>