<svg width="1em" height="1em" viewBox="0 0 24 24" fill="currentColor" xmlns="http://www.w3.org/2000/svg">
<g id="&#230;&#181;&#174;&#231;&#170;&#151;">
<path id="Vector" d="M13.7115 15.6923H16.9038C17.1614 15.6923 17.3765 15.6061 17.549 15.4338C17.7215 15.2613 17.8077 15.0462 17.8077 14.7885V11.0962C17.8077 10.8386 17.7215 10.6235 17.549 10.451C17.3765 10.2785 17.1614 10.1923 16.9038 10.1923H13.7115C13.4538 10.1923 13.2388 10.2785 13.0663 10.451C12.8939 10.6235 12.8077 10.8386 12.8077 11.0962V14.7885C12.8077 15.0462 12.8939 15.2613 13.0663 15.4338C13.2388 15.6061 13.4538 15.6923 13.7115 15.6923ZM4.30775 19.5C3.80258 19.5 3.375 19.325 3.025 18.975C2.675 18.625 2.5 18.1974 2.5 17.6923V6.30775C2.5 5.80258 2.675 5.375 3.025 5.025C3.375 4.675 3.80258 4.5 4.30775 4.5H19.6923C20.1974 4.5 20.625 4.675 20.975 5.025C21.325 5.375 21.5 5.80258 21.5 6.30775V17.6923C21.5 18.1974 21.325 18.625 20.975 18.975C20.625 19.325 20.1974 19.5 19.6923 19.5H4.30775ZM4.30775 18H19.6923C19.7693 18 19.8398 17.9679 19.9038 17.9038C19.9679 17.8398 20 17.7692 20 17.6923V6.30775C20 6.23075 19.9679 6.16025 19.9038 6.09625C19.8398 6.03208 19.7693 6 19.6923 6H4.30775C4.23075 6 4.16025 6.03208 4.09625 6.09625C4.03208 6.16025 4 6.23075 4 6.30775V17.6923C4 17.7692 4.03208 17.8398 4.09625 17.9038C4.16025 17.9679 4.23075 18 4.30775 18Z"/>
</g>
</svg>
