<svg width="1em" height="1em" viewBox="0 0 24 24" fill="currentColor" xmlns="http://www.w3.org/2000/svg">
<g id="&#229;&#133;&#168;&#229;&#177;&#143;">
<path id="Vector" d="M17.2163 17.2163L17.223 15.0038C17.223 14.7936 17.2935 14.6157 17.4346 14.4701C17.5756 14.3247 17.7534 14.2542 17.9681 14.2587C18.1786 14.2587 18.3561 14.3333 18.5006 14.4825C18.6452 14.6316 18.7175 14.8112 18.7175 15.0215V17.8227C18.7175 17.9552 18.6943 18.0716 18.648 18.1722C18.6018 18.2728 18.5361 18.3657 18.4509 18.4509C18.3657 18.5362 18.2728 18.6019 18.1721 18.6481C18.0716 18.6944 17.9551 18.7175 17.8226 18.7175H15.0214C14.8112 18.7175 14.6326 18.6463 14.4858 18.504C14.3388 18.3617 14.2653 18.1809 14.2653 17.9615C14.2655 17.7421 14.3349 17.5631 14.4736 17.4244C14.6123 17.2857 14.7913 17.2163 15.0105 17.2163H17.2163ZM6.78363 17.2163H8.98945C9.19969 17.2163 9.37641 17.2857 9.5196 17.4244C9.66279 17.5631 9.73444 17.7421 9.73456 17.9615C9.73456 18.1809 9.66338 18.3618 9.52102 18.5042C9.37877 18.6464 9.19793 18.7175 8.97849 18.7175H6.17728C6.04482 18.7175 5.92832 18.6944 5.8278 18.6481C5.72715 18.6019 5.63423 18.5362 5.54902 18.4509C5.46381 18.3657 5.39811 18.2728 5.35191 18.1722C5.3056 18.0716 5.28244 17.9552 5.28244 17.8227L5.28244 15.008C5.28244 14.7976 5.35356 14.6212 5.49581 14.479C5.63817 14.3366 5.81684 14.2632 6.0318 14.2587C6.24652 14.2542 6.42436 14.3247 6.56531 14.4701C6.70638 14.6157 6.77691 14.7936 6.77691 15.0038L6.78363 17.2163ZM17.223 6.77697L14.997 6.77025C14.7867 6.77013 14.6121 6.69848 14.4734 6.55529C14.3347 6.4121 14.2654 6.23533 14.2655 6.02496C14.2654 5.8146 14.3377 5.63711 14.4823 5.49251C14.6269 5.34791 14.8043 5.27566 15.0147 5.27578L17.8226 5.2825C17.9551 5.2825 18.0716 5.30566 18.1721 5.35197C18.2728 5.39817 18.3657 5.46387 18.4509 5.54908C18.5361 5.63429 18.6018 5.72721 18.648 5.82786C18.6943 5.92838 18.7175 6.04488 18.7175 6.17734L18.7175 8.97855C18.7175 9.18879 18.6452 9.36846 18.5006 9.51754C18.3561 9.66674 18.1764 9.7391 17.9614 9.73462C17.751 9.7345 17.5754 9.66173 17.4344 9.5163C17.2935 9.37087 17.2231 9.19298 17.2232 8.98261L17.223 6.77697ZM6.77691 6.77697L6.77691 8.99622C6.77691 9.20647 6.70644 9.38207 6.56549 9.52302C6.42454 9.66397 6.24888 9.7345 6.03851 9.73462C5.82355 9.7391 5.64383 9.66674 5.49935 9.51754C5.35474 9.36846 5.28244 9.18879 5.28244 8.97855L5.28244 6.17734C5.28244 6.04488 5.3056 5.92838 5.35191 5.82786C5.39811 5.72721 5.46381 5.63429 5.54902 5.54908C5.63423 5.46387 5.72715 5.39817 5.8278 5.35197C5.92832 5.30566 6.04482 5.2825 6.17728 5.2825L8.99192 5.2825C9.2024 5.2825 9.37877 5.35598 9.52102 5.50294C9.66326 5.64966 9.73444 5.82821 9.73456 6.03857C9.73444 6.24894 9.66509 6.42342 9.52649 6.56201C9.38778 6.70072 9.21325 6.77013 9.00288 6.77025L6.77691 6.77697Z"/>
</g>
</svg>
