<svg xmlns="http://www.w3.org/2000/svg" width="1em" height="1em" viewBox="0 0 24 24" fill="currentColor">
  <path d="M17.6923 13.0538L15.6193 15.127C15.4808 15.2653 15.3067 15.3362 15.097 15.3395C14.8875 15.3427 14.7102 15.2718 14.5652 15.127C14.4204 14.982 14.348 14.8063 14.348 14.6C14.348 14.3937 14.4204 14.218 14.5652 14.073L16.6385 12L14.5652 9.927C14.4269 9.7885 14.3562 9.61442 14.353 9.40475C14.3497 9.19525 14.4204 9.018 14.5652 8.873C14.7102 8.72817 14.8859 8.65575 15.0922 8.65575C15.2987 8.65575 15.4744 8.72817 15.6193 8.873L17.6923 10.9463L19.7652 8.873C19.9037 8.73467 20.0778 8.66383 20.2875 8.6605C20.4972 8.65733 20.6744 8.72817 20.8193 8.873C20.9641 9.018 21.0365 9.19367 21.0365 9.4C21.0365 9.60633 20.9641 9.782 20.8193 9.927L18.746 12L20.8193 14.073C20.9577 14.2115 21.0286 14.3856 21.0317 14.5953C21.0349 14.8048 20.9641 14.982 20.8193 15.127C20.6744 15.2718 20.4988 15.3443 20.2922 15.3443C20.0859 15.3443 19.9102 15.2718 19.7652 15.127L17.6923 13.0538ZM7.3655 14.5H4.55775C4.30008 14.5 4.085 14.4138 3.9125 14.2413C3.74017 14.0689 3.654 13.8538 3.654 13.596V10.404C3.654 10.1462 3.74017 9.93108 3.9125 9.75875C4.085 9.58625 4.30008 9.5 4.55775 9.5H7.3655L10.3577 6.50775C10.5974 6.26808 10.8733 6.21325 11.1855 6.34325C11.4977 6.47342 11.6537 6.709 11.6537 7.05V16.95C11.6537 17.291 11.4977 17.5266 11.1855 17.6568C10.8733 17.7868 10.5974 17.7319 10.3577 17.4923L7.3655 14.5ZM10.1537 8.85L8.00375 11H5.15375V13H8.00375L10.1537 15.15V8.85Z"/>
</svg>