<svg width="1em" height="1em" viewBox="0 0 28 28" fill="currentColor" xmlns="http://www.w3.org/2000/svg">
<g id="&#230;&#154;&#130;&#229;&#129;&#156;">
<path id="Vector" d="M18.0832 21.5834C17.606 21.5834 17.195 21.411 16.8503 21.0663C16.5055 20.7215 16.3332 20.3106 16.3332 19.8334V8.16675C16.3332 7.68958 16.5055 7.27862 16.8503 6.93387C17.195 6.58912 17.606 6.41675 18.0832 6.41675H18.9582C19.4353 6.41675 19.8463 6.58912 20.191 6.93387C20.5358 7.27862 20.7082 7.68958 20.7082 8.16675V19.8334C20.7082 20.3106 20.5358 20.7215 20.191 21.0663C19.8463 21.411 19.4353 21.5834 18.9582 21.5834H18.0832ZM9.0415 21.5834C8.56434 21.5834 8.15338 21.411 7.80863 21.0663C7.46388 20.7215 7.2915 20.3106 7.2915 19.8334V8.16675C7.2915 7.68958 7.46388 7.27862 7.80863 6.93387C8.15338 6.58912 8.56434 6.41675 9.0415 6.41675H9.9165C10.3937 6.41675 10.8046 6.58912 11.1494 6.93387C11.4941 7.27862 11.6665 7.68958 11.6665 8.16675V19.8334C11.6665 20.3106 11.4941 20.7215 11.1494 21.0663C10.8046 21.411 10.3937 21.5834 9.9165 21.5834H9.0415Z"/>
</g>
</svg>
