<svg width="1em" height="1em" viewBox="0 0 24 24" fill="currentColor" xmlns="http://www.w3.org/2000/svg">
<g id="&#230;&#146;&#173;&#230;&#148;&#190;">
<path id="Vector" d="M8.5 16.4443V7.55575C8.5 7.29175 8.59058 7.07508 8.77175 6.90575C8.95292 6.73658 9.16433 6.652 9.406 6.652C9.4815 6.652 9.56067 6.66292 9.6435 6.68475C9.72633 6.70642 9.80542 6.73908 9.88075 6.78275L16.8767 11.2365C17.0141 11.3302 17.117 11.4423 17.1855 11.573C17.2542 11.7038 17.2885 11.8462 17.2885 12C17.2885 12.1538 17.2542 12.2962 17.1855 12.427C17.117 12.5577 17.0141 12.6698 16.8767 12.7635L9.88075 17.2172C9.80525 17.2609 9.72592 17.2936 9.64275 17.3152C9.55975 17.3371 9.4805 17.348 9.405 17.348C9.16317 17.348 8.95192 17.2634 8.77125 17.0942C8.59042 16.9249 8.5 16.7083 8.5 16.4443Z"/>
</g>
</svg>
