<svg width="1em" height="1em" viewBox="0 0 24 24" fill="currentColor" xmlns="http://www.w3.org/2000/svg">
<g id="&#229;&#163;&#176;&#233;&#159;&#179;">
<path id="Vector" d="M18.8462 11.975C18.8462 10.598 18.4779 9.34192 17.7412 8.20675C17.0047 7.07142 16.0167 6.22367 14.777 5.6635C14.5847 5.5725 14.443 5.43658 14.352 5.25575C14.261 5.07508 14.2507 4.89175 14.3212 4.70575C14.4019 4.50325 14.5442 4.36292 14.748 4.28475C14.9518 4.20642 15.1582 4.21283 15.3672 4.304C16.8749 4.9885 18.0817 6.01858 18.9875 7.39425C19.8932 8.76992 20.346 10.2968 20.346 11.975C20.346 13.6532 19.8932 15.1801 18.9875 16.5557C18.0817 17.9314 16.8749 18.9615 15.3672 19.646C15.1582 19.7372 14.9518 19.7436 14.748 19.6652C14.5442 19.5871 14.4019 19.4467 14.3212 19.2442C14.2507 19.0582 14.261 18.8749 14.352 18.6942C14.443 18.5134 14.5847 18.3775 14.777 18.2865C16.0167 17.7263 17.0047 16.8786 17.7412 15.7432C18.4779 14.6081 18.8462 13.352 18.8462 11.975ZM7.3655 14.5H4.55775C4.30008 14.5 4.085 14.4137 3.9125 14.2413C3.74017 14.0689 3.654 13.8538 3.654 13.596V10.404C3.654 10.1462 3.74017 9.93108 3.9125 9.75875C4.085 9.58625 4.30008 9.5 4.55775 9.5H7.3655L10.3577 6.50775C10.5974 6.26808 10.8733 6.21325 11.1855 6.34325C11.4977 6.47342 11.6537 6.709 11.6537 7.05V16.95C11.6537 17.291 11.4977 17.5266 11.1855 17.6567C10.8733 17.7867 10.5974 17.7319 10.3577 17.4923L7.3655 14.5ZM16.1538 12C16.1538 12.623 16.0242 13.2134 15.7652 13.7712C15.5064 14.3289 15.1571 14.7981 14.7172 15.1788C14.5762 15.2724 14.4278 15.2814 14.272 15.2058C14.1163 15.1301 14.0385 15.0051 14.0385 14.8308V9.11925C14.0385 8.94492 14.1163 8.81992 14.272 8.74425C14.4278 8.66858 14.5762 8.67758 14.7172 8.77125C15.1571 9.16225 15.5064 9.64233 15.7652 10.2115C16.0242 10.7808 16.1538 11.377 16.1538 12Z"/>
</g>
</svg>
